<svg width="17" height="17" viewBox="0 0 17 17" fill="#7E7E7E" xmlns="http://www.w3.org/2000/svg">
<path fill-rule="evenodd" clip-rule="evenodd" d="M9.8 0.0550326C9.4 0.0590326 9 0.444033 9 0.915033C9 1.38603 9.4 1.76503 9.8 1.76003L13.7 1.72403L8.1 7.48703C7.8 7.82003 7.8 8.36003 8.1 8.69303C8.5 9.02603 9 9.02603 9.3 8.69303L14.9 2.93103V6.93103C14.9 7.40203 15.2 7.78703 15.7 7.79103C16.2 7.79503 16.5 7.41703 16.5 6.94603L16.6 0.860033C16.6 0.632033 16.5 0.412033 16.3 0.250033C16.2 0.0880326 16 -0.00196737 15.7 3.26344e-05L9.8 0.0550326ZM0.8 0.396033C0.4 0.396033 0 0.778033 0 1.24903V15.748C0 16.219 0.4 16.601 0.8 16.601H15.7C16.2 16.601 16.6 16.219 16.6 15.748V11.483C16.6 11.012 16.2 10.63 15.7 10.63C15.3 10.63 14.9 11.012 14.9 11.483V14.895H1.6V2.10203H5.4C5.8 2.10203 6.2 1.72003 6.2 1.24903C6.2 0.778033 5.8 0.396033 5.4 0.396033H0.8Z" fill="#7E7E7E"/>
</svg>
